<?xml version="1.0" encoding="UTF-8"?> <svg xmlns="http://www.w3.org/2000/svg" xmlns:xlink="http://www.w3.org/1999/xlink" viewBox="0 0 417.13 148.09"><defs><style>.cls-1{fill:url(#Unbenannter_Verlauf_81);}.cls-2{fill:url(#Unbenannter_Verlauf_81-2);}.cls-3{fill:url(#Unbenannter_Verlauf_81-3);}.cls-4{fill:#ffcd1c;}.cls-5{fill:url(#Unbenannter_Verlauf_81-4);}.cls-6{fill:#d51130;}.cls-7{fill:#1d1d1b;}</style><linearGradient id="Unbenannter_Verlauf_81" x1="23.66" y1="89.24" x2="23.66" y2="28.18" gradientUnits="userSpaceOnUse"><stop offset="0" stop-color="#161a20"></stop><stop offset="0.1" stop-color="#181c23"></stop><stop offset="1" stop-color="#292e36"></stop></linearGradient><linearGradient id="Unbenannter_Verlauf_81-2" x1="136.65" y1="87.67" x2="136.65" y2="0" xlink:href="#Unbenannter_Verlauf_81"></linearGradient><linearGradient id="Unbenannter_Verlauf_81-3" x1="84.73" y1="89.24" x2="84.73" y2="29.38" xlink:href="#Unbenannter_Verlauf_81"></linearGradient><linearGradient id="Unbenannter_Verlauf_81-4" x1="205.93" y1="89.24" x2="205.93" y2="28.78" xlink:href="#Unbenannter_Verlauf_81"></linearGradient></defs><g id="Ebene_2" data-name="Ebene 2"><g id="Ebene_1-2" data-name="Ebene 1"><path class="cls-1" d="M31.84,53.3c-6.57-2.23-12.74-3-12.08-7.22.79-6,8.27-6.7,19.3,1.18l7.26-11.39c-7.62-4.59-12.51-7.69-22.23-7.69C13.33,28.18,4,35.45,4,45.82c0,10.89,7.61,14.3,18.64,17.72,4.2,1.31,8.27,2.62,8.27,6.82,0,7.09-12.6,6.7-20.87-2.75L0,77.78A37.57,37.57,0,0,0,26.5,89.24c11.55,0,20.83-9.42,20.83-18.48C47.33,61,39.85,55.66,31.84,53.3Z"></path><rect class="cls-2" x="128.24" width="16.8" height="87.67"></rect><path class="cls-3" d="M102.51,36.47a29.93,29.93,0,1,0,0,45.68v5.52h13.92V31.09h-12.6ZM85.12,74.67a15.46,15.46,0,1,1,15.46-15.46A15.46,15.46,0,0,1,85.12,74.67Z"></path><path class="cls-4" d="M309.64,0V33a30.23,30.23,0,1,0,0,52v2.67h15.49V0ZM294.21,74.47a15.46,15.46,0,1,1,15.43-15.89v.87A15.44,15.44,0,0,1,294.21,74.47Z"></path><path class="cls-5" d="M228.78,28.78a30.11,30.11,0,0,0-19.28,7,59.27,59.27,0,0,1,4.26,6.42,59.63,59.63,0,0,1,3.08,7A15.44,15.44,0,1,1,213.32,59c0-.5,0-1,0-1.49l0-.49c0-.32-.05-.65-.08-1s0-.4-.07-.61-.06-.55-.1-.83-.07-.44-.11-.66-.09-.5-.13-.75l-.15-.71c-.05-.22-.1-.44-.16-.66s-.12-.5-.19-.75-.11-.39-.16-.59-.16-.53-.25-.8-.11-.32-.16-.48-.2-.58-.31-.87l-.13-.33c-.13-.33-.26-.66-.4-1h0a30.41,30.41,0,0,0-4.92-7.81,31.39,31.39,0,0,0-2.19-2.28h0a30.24,30.24,0,1,0-1.39,45.35,59.54,59.54,0,0,1-4.22-6.38,58.16,58.16,0,0,1-3.1-7.09A15.44,15.44,0,1,1,198.55,59h0c0,.5,0,1,0,1.49,0,.17,0,.33,0,.49,0,.33,0,.65.07,1s.05.41.07.61.07.56.11.83.07.45.11.67.08.49.13.74l.15.71.15.67c.06.25.13.5.2.75l.16.58c.08.27.16.54.25.8s.1.33.16.49.2.58.31.86l.13.33c.13.33.26.67.4,1h0A30.24,30.24,0,0,0,206,78.83c.32.37.65.74,1,1.09A.6.6,0,0,0,207,80c.34.35.68.69,1,1l.11.1a30.23,30.23,0,1,0,20.59-52.35Z"></path><path class="cls-6" d="M391.27,69.19a30.2,30.2,0,0,0-10.93-34.38,11.26,11.26,0,0,1-.3,6.37,11.38,11.38,0,0,1-6.74,6.92A15.44,15.44,0,0,1,362,74.76a12.33,12.33,0,0,1-2.68-.36,14.67,14.67,0,0,1-1.66-.46l-.12-.06A7.38,7.38,0,0,0,353.38,88l1.19.41A30.22,30.22,0,0,0,391.27,69.19Z"></path><path class="cls-4" d="M345,77.33a11.32,11.32,0,0,1,6.63-6.91,15.45,15.45,0,0,1,15.58-25.9l.07,0a7.37,7.37,0,0,0,4.44-14l-1.18-.41a30.21,30.21,0,0,0-25.8,53.71A11.25,11.25,0,0,1,345,77.33Z"></path><path class="cls-6" d="M401.33,87.67V72.23h15.8V87.67Zm.36-23.34V0h15.44V64.33Z"></path><path class="cls-7" d="M25.52,112.18v25.9H23.47v-25.9Z"></path><path class="cls-7" d="M38.73,121a7.51,7.51,0,0,1,5.79,2.29,10.21,10.21,0,0,1,0,12.48,7.51,7.51,0,0,1-5.79,2.29,7.51,7.51,0,0,1-5.79-2.29,10.21,10.21,0,0,1,0-12.48A7.51,7.51,0,0,1,38.73,121Zm0,15a5.55,5.55,0,0,0,4.33-1.7,8.23,8.23,0,0,0,0-9.56,5.54,5.54,0,0,0-4.33-1.69,5.53,5.53,0,0,0-4.33,1.69,8.23,8.23,0,0,0,0,9.56A5.53,5.53,0,0,0,38.73,136Z"></path><path class="cls-7" d="M65,121H67v18.54a7.91,7.91,0,0,1-8.5,8.53c-3.25,0-5.63-1.13-7.12-3.41l1.88-.92A6.06,6.06,0,0,0,58.53,146a6.39,6.39,0,0,0,4.75-1.7A6.46,6.46,0,0,0,65,139.56v-4.78a5.56,5.56,0,0,1-3.93,3.1l-.18,0a9.65,9.65,0,0,1-3.5,0l-.16,0a6.89,6.89,0,0,1-4.42-2.79,10.44,10.44,0,0,1,0-11.11,7,7,0,0,1,4.42-2.78l.2,0a9,9,0,0,1,1.69-.15,9.38,9.38,0,0,1,1.71.15l.17,0a5.61,5.61,0,0,1,4,3.1Zm-5.86,15a5.53,5.53,0,0,0,4.33-1.7A6.88,6.88,0,0,0,65,129.55v0a6.86,6.86,0,0,0-1.53-4.76,5.53,5.53,0,0,0-4.33-1.69,5.54,5.54,0,0,0-4.33,1.69,8.23,8.23,0,0,0,0,9.56A5.55,5.55,0,0,0,59.11,136Z"></path><path class="cls-7" d="M74.52,116.78a1.23,1.23,0,1,1,.86-.36A1.19,1.19,0,0,1,74.52,116.78Zm-1,4.24h2.05v17.06H73.49Z"></path><path class="cls-7" d="M87.32,128.31a7.14,7.14,0,0,1,5,1.57,4.25,4.25,0,0,1,1.44,3.31,4.33,4.33,0,0,1-1.44,3.34,7.18,7.18,0,0,1-5,1.55A7.8,7.8,0,0,1,82.89,137,4.34,4.34,0,0,1,81,134.37l2.11-.18a2.51,2.51,0,0,0,1.21,1.24,6.21,6.21,0,0,0,3,.6,5,5,0,0,0,3.66-1.1,2.3,2.3,0,0,0,.6-.94,2.5,2.5,0,0,0,0-1.59,2.3,2.3,0,0,0-.6-.94,5.07,5.07,0,0,0-3.66-1.08,6.87,6.87,0,0,1-4.78-1.5,4.15,4.15,0,0,1-1.37-3.19,4.11,4.11,0,0,1,1.37-3.17,6.87,6.87,0,0,1,4.78-1.5,7.17,7.17,0,0,1,4.44,1.21,4.37,4.37,0,0,1,1,1.12,4.79,4.79,0,0,1,.5,1.13l-2.14.17A2.48,2.48,0,0,0,90,123.58a6.21,6.21,0,0,0-2.69-.5,4.69,4.69,0,0,0-3.42,1,2,2,0,0,0-.54.86,2.1,2.1,0,0,0-.13.74,2,2,0,0,0,.13.74,1.89,1.89,0,0,0,.54.87A4.74,4.74,0,0,0,87.32,128.31Z"></path><path class="cls-7" d="M101.9,121.47h2.72v2H101.9v9.58q0,2.94,2.61,2.94h.11v2.05h-.11a4.49,4.49,0,0,1-3.41-1.35,5.17,5.17,0,0,1-1.26-3.64v-9.58H97.1v-2h2.74V115h2.06Z"></path><path class="cls-7" d="M111.13,116.78a1.23,1.23,0,1,1,.87-.36A1.18,1.18,0,0,1,111.13,116.78Zm-1,4.24h2v17.06h-2Z"></path><path class="cls-7" d="M125.56,136a5.34,5.34,0,0,0,4.75-2.22l1.89.85a6.93,6.93,0,0,1-2.72,2.54,8.5,8.5,0,0,1-3.92.88,7.47,7.47,0,0,1-5.78-2.29,10.21,10.21,0,0,1,0-12.48,7.47,7.47,0,0,1,5.78-2.29,8.54,8.54,0,0,1,3.9.88,6.86,6.86,0,0,1,2.72,2.49l-1.89.87a5.35,5.35,0,0,0-4.73-2.18,5.52,5.52,0,0,0-4.32,1.69,8.19,8.19,0,0,0,0,9.56A5.52,5.52,0,0,0,125.56,136Z"></path><path class="cls-7" d="M142.05,128.31a7.11,7.11,0,0,1,5,1.57,4.26,4.26,0,0,1,1.45,3.31,4.34,4.34,0,0,1-1.45,3.34,7.16,7.16,0,0,1-5,1.55,7.85,7.85,0,0,1-4.44-1.13,4.38,4.38,0,0,1-1.86-2.58l2.11-.18a2.51,2.51,0,0,0,1.21,1.24,6.25,6.25,0,0,0,3,.6,5,5,0,0,0,3.66-1.1,2.38,2.38,0,0,0,.59-.94,2.5,2.5,0,0,0,0-1.59,2.38,2.38,0,0,0-.59-.94,5.07,5.07,0,0,0-3.66-1.08,6.83,6.83,0,0,1-4.78-1.5,4.12,4.12,0,0,1-1.37-3.19,4.08,4.08,0,0,1,1.37-3.17,6.83,6.83,0,0,1,4.78-1.5,7.12,7.12,0,0,1,4.43,1.21,4.19,4.19,0,0,1,1,1.12,4.44,4.44,0,0,1,.51,1.13l-2.15.17a2.48,2.48,0,0,0-1.14-1.07,6.19,6.19,0,0,0-2.68-.5,4.72,4.72,0,0,0-3.43,1,2.24,2.24,0,0,0-.54.86,2.35,2.35,0,0,0-.13.74,2.21,2.21,0,0,0,.13.74,2.07,2.07,0,0,0,.54.87A4.77,4.77,0,0,0,142.05,128.31Z"></path><path class="cls-7" d="M154.13,137.72a1.23,1.23,0,0,1,.87-2.09,1.16,1.16,0,0,1,.86.36,1.2,1.2,0,0,1,0,1.73,1.16,1.16,0,0,1-.86.36A1.19,1.19,0,0,1,154.13,137.72Z"></path><path class="cls-7" d="M179.37,128.31a7.11,7.11,0,0,1,5,1.57,4.23,4.23,0,0,1,1.45,3.31,4.31,4.31,0,0,1-1.45,3.34,7.16,7.16,0,0,1-5,1.55,7.85,7.85,0,0,1-4.44-1.13,4.38,4.38,0,0,1-1.86-2.58l2.11-.18a2.55,2.55,0,0,0,1.21,1.24,6.28,6.28,0,0,0,3,.6,5,5,0,0,0,3.66-1.1,2.3,2.3,0,0,0,.6-.94,2.69,2.69,0,0,0,0-1.59,2.3,2.3,0,0,0-.6-.94,5.07,5.07,0,0,0-3.66-1.08,6.85,6.85,0,0,1-4.78-1.5,4.15,4.15,0,0,1-1.37-3.19,4.11,4.11,0,0,1,1.37-3.17,6.85,6.85,0,0,1,4.78-1.5,7.17,7.17,0,0,1,4.44,1.21,4.15,4.15,0,0,1,1,1.12,4.44,4.44,0,0,1,.51,1.13l-2.15.17a2.45,2.45,0,0,0-1.13-1.07,6.24,6.24,0,0,0-2.69-.5,4.74,4.74,0,0,0-3.43,1,2.24,2.24,0,0,0-.54.86,2.35,2.35,0,0,0-.13.74,2.21,2.21,0,0,0,.13.74,2.07,2.07,0,0,0,.54.87A4.78,4.78,0,0,0,179.37,128.31Z"></path><path class="cls-7" d="M192.32,116.78a1.2,1.2,0,0,1-.87-.36,1.22,1.22,0,0,1,0-1.73,1.2,1.2,0,0,1,.87-.36,1.23,1.23,0,1,1,0,2.45Zm-1,4.24h2.06v17.06h-2.06Z"></path><path class="cls-7" d="M226.68,138.08h-2.06v-8.53a7.56,7.56,0,0,0-1.33-4.8,5.14,5.14,0,0,0-7.36-.23,6.51,6.51,0,0,0-1.5,4.11v9.45h-2.05v-8.53a7.62,7.62,0,0,0-1.32-4.8,4.55,4.55,0,0,0-3.79-1.67,4.63,4.63,0,0,0-3.59,1.42,6.68,6.68,0,0,0-1.49,4.11v9.47h-2.06V121h2.06v2.47a5.08,5.08,0,0,1,1.86-1.77,6.94,6.94,0,0,1,3.22-.72,7,7,0,0,1,3.23.72,6.51,6.51,0,0,1,3.14,3.52,5.68,5.68,0,0,1,2.65-3.52,7,7,0,0,1,3.21-.72,7.1,7.1,0,0,1,3.25.72,6.54,6.54,0,0,1,2.9,3,10.5,10.5,0,0,1,1,4.81Z"></path><path class="cls-7" d="M241.8,121.2a7,7,0,0,1,4.42,2.8,9.36,9.36,0,0,1,1.58,5.55,9.24,9.24,0,0,1-1.6,5.56,6.82,6.82,0,0,1-4.42,2.77l-.2.06a10.08,10.08,0,0,1-1.7.14,9.13,9.13,0,0,1-1.73-.16l-.14,0a5.56,5.56,0,0,1-4-3.12v12.14H232V121H234v3.28a5.65,5.65,0,0,1,3.93-3.1l.19,0a10.23,10.23,0,0,1,3.49,0ZM239.88,136a5.53,5.53,0,0,0,4.33-1.7,8.19,8.19,0,0,0,0-9.56,6.41,6.41,0,0,0-8.65,0,6.85,6.85,0,0,0-1.54,4.78v0a6.84,6.84,0,0,0,1.54,4.78A5.52,5.52,0,0,0,239.88,136Z"></path><path class="cls-7" d="M255.48,112.18v25.9h-2.06v-25.9Z"></path><path class="cls-7" d="M274.13,121h2.05v18.9a7.22,7.22,0,0,1-7.75,7.79c-2.95,0-5.1-1-6.46-3l1.88-.92a5.41,5.41,0,0,0,4.58,1.92,5.21,5.21,0,0,0,5.7-5.74v-4.33a5.08,5.08,0,0,1-1.86,1.77,7.73,7.73,0,0,1-6.47,0,6.5,6.5,0,0,1-2.89-3,10.82,10.82,0,0,1-1-4.84V121h2.06v8.51a7.73,7.73,0,0,0,1.31,4.82A4.57,4.57,0,0,0,269,136a4.65,4.65,0,0,0,3.59-1.43,6.54,6.54,0,0,0,1.5-4.09Z"></path><path class="cls-7" d="M306.81,112.18h2.06v25.9h-2.06v-3.3a5.56,5.56,0,0,1-3.93,3.1l-.18,0a9.65,9.65,0,0,1-3.5,0l-.16,0a6.89,6.89,0,0,1-4.42-2.79,10.44,10.44,0,0,1,0-11.11,7,7,0,0,1,4.42-2.78l.16,0A9.69,9.69,0,0,1,301,121a9.38,9.38,0,0,1,1.71.15l.17,0a5.61,5.61,0,0,1,4,3.1ZM301,136a5.53,5.53,0,0,0,4.33-1.7,6.88,6.88,0,0,0,1.53-4.78v0a6.86,6.86,0,0,0-1.53-4.76,6.39,6.39,0,0,0-8.66,0,8.23,8.23,0,0,0,0,9.56A5.55,5.55,0,0,0,301,136Z"></path><path class="cls-7" d="M316.59,116.78a1.16,1.16,0,0,1-.86-.36,1.2,1.2,0,0,1,0-1.73,1.16,1.16,0,0,1,.86-.36,1.23,1.23,0,1,1,0,2.45Zm-1,4.24h2.06v17.06h-2.06Z"></path><path class="cls-7" d="M336.88,121h2.06v18.54a8.45,8.45,0,0,1-2.29,6.24,8.36,8.36,0,0,1-6.21,2.29c-3.25,0-5.63-1.13-7.12-3.41l1.88-.92a6.06,6.06,0,0,0,5.24,2.28,6.39,6.39,0,0,0,4.75-1.7,6.46,6.46,0,0,0,1.69-4.78v-4.78a5.56,5.56,0,0,1-3.93,3.1l-.18,0a9.65,9.65,0,0,1-3.5,0l-.16,0a6.89,6.89,0,0,1-4.42-2.79,10.44,10.44,0,0,1,0-11.11,7,7,0,0,1,4.42-2.78l.2,0A9,9,0,0,1,331,121a9.38,9.38,0,0,1,1.71.15l.17,0a5.61,5.61,0,0,1,4,3.1ZM331,136a5.55,5.55,0,0,0,4.33-1.7,6.88,6.88,0,0,0,1.53-4.78v0a6.86,6.86,0,0,0-1.53-4.76,6.39,6.39,0,0,0-8.66,0,8.23,8.23,0,0,0,0,9.56A5.55,5.55,0,0,0,331,136Z"></path><path class="cls-7" d="M346.43,116.78a1.23,1.23,0,1,1,.86-.36A1.19,1.19,0,0,1,346.43,116.78Zm-1,4.24h2.05v17.06H345.4Z"></path><path class="cls-7" d="M357.74,121.47h2.72v2h-2.72v9.58q0,2.94,2.61,2.94h.11v2.05h-.11a4.49,4.49,0,0,1-3.41-1.35,5.17,5.17,0,0,1-1.26-3.64v-9.58h-2.74v-2h2.74V115h2.06Z"></path><path class="cls-7" d="M377.79,121h2.06v17h-2.06v-3.3a5.56,5.56,0,0,1-3.93,3.1l-.18,0a8.9,8.9,0,0,1-1.75.16,9,9,0,0,1-1.75-.16l-.16,0a6.89,6.89,0,0,1-4.42-2.79,10.44,10.44,0,0,1,0-11.11A7,7,0,0,1,370,121.2l.2,0a9.08,9.08,0,0,1,1.69-.15,9.57,9.57,0,0,1,1.72.15l.16,0a5.61,5.61,0,0,1,4,3.1Zm-5.86,15a5.53,5.53,0,0,0,4.33-1.7,6.88,6.88,0,0,0,1.53-4.78v0a6.86,6.86,0,0,0-1.53-4.76,6.39,6.39,0,0,0-8.66,0,8.23,8.23,0,0,0,0,9.56A5.56,5.56,0,0,0,371.93,136Z"></path><path class="cls-7" d="M388.78,112.18v25.9h-2.06v-25.9Z"></path><path class="cls-7" d="M394.43,137.72a1.22,1.22,0,1,1,.86.36A1.18,1.18,0,0,1,394.43,137.72Z"></path></g></g></svg> 